<svg xmlns="http://www.w3.org/2000/svg" xml:space="preserve" fill-rule="evenodd" stroke-linejoin="round" stroke-miterlimit="2" clip-rule="evenodd" viewBox="0 0 71 107">  <path d="M39.632 85.38c-1.684-4.415-1.197-9.352-2.133-13.9-1.431-4.184-4.129-7.941-4.651-12.435-1.225-4.311 3.157-9.635 7.529-6.924 3.422 2.146 4.592 6.463 7.174 9.359 1.577 1.923 3.192 3.876 5.224 5.335.425.299.567.875.275 1.32-1.361 1.633-4.391-2.705-5.442-3.623-3.271-2.482-6.841-14.02-11.489-10.52-4.337 4.735 1.812 11.847 3.16 16.803.848 2.894.544 5.948 1.009 8.9.293 1.574.566 3.156.971 4.703.55 1.002-.977 1.959-1.627.983"></path>  <path d="M36.763 60.243a.96.96 0 0 1-.9-1c.026-.836.887-.86 1.482-1.095 1.323-.203 2.233-2.407 3.566-1.594 1.38 1.68-2.814 3.567-4.148 3.689M10.718 81.026c-5.673.02-9.744-3.902-9.613-9.63-.418-5.952.075-11.917-.01-17.877.289-13.205-.675-26.36-.95-39.55.25-1.703-.976-9.612 1.03-9.396 1.636-.31.513 5.745.822 6.92.093 4.02.148 8.045.272 12.065.725 10.197.79 20.409.73 30.628.039 4.4-.189 8.798-.159 13.197.148 3.937-.238 9.282 4.184 11.014 7.989 1.905 16.411.014 24.538-.042 1.457.239 6.571-1.448 6.694.36.182 1.812-5.389 1.17-6.716 1.55-6.934.282-13.882 1.024-20.822.76"></path>  <path d="M48.314 65.852a2.002 2.002 0 0 0-.372-.319c-.128-14.971-.92-29.856-.457-44.802.57-19.32-1.608-18.674-19.895-18.784-1.69.203-4.146.19-6.877.179-7.032-.031-15.892-.061-18.223 3.597C2.337 6.9.451 6.588.602 5.496 2.785-.191 11.976.599 17.028.358 24.992.234 33.07-.556 40.974.707c7.248.79 8.337 6.729 8.383 12.925.192 6.547-.217 13.099-.167 19.646.253 7.926.391 15.866.486 23.778-.148 3.04.541 6.265-.06 9.176a.87.87 0 0 1-.625.32c-.232-.228-.46-.46-.677-.7"></path>  <path d="M55.994 105.704c-2.534-.884 5.678-14.014 6.237-16.577 2.305-6.227 4.98-12.455 6.099-19.027 1.584-14.675-11.893-23.959-20.64-33.644-.842-.66.047-2.098 1.026-1.586.759.557 1.312 1.367 1.993 2.02 4.856 4.982 9.941 9.78 14.231 15.276 8.635 11.867 5.238 21.593.468 34.016-1.863 5.503-4.839 10.6-7.126 15.9-.745 1.111-.534 3.837-2.288 3.622m-25.774.506c-3.94-5.86-6.878-12.98-5.713-20.148.496-1.729.351-5.082 1.918-6.058 1.104-.183 1.373 1.02.919 1.805-1.791 5.733-1.511 11.9 1.114 17.332.954 2.076 1.991 4.126 3.328 5.984.708.997-.865 2.112-1.566 1.085M10.24 74.426c-4.252.116-4.423-3.522-4.538-6.823-.208-3.117-.267-6.295-.307-9.4l-.001-.082c-.427-12.072-.191-24.168-.268-36.252.38-1.87-1.512-15.24 2.091-12.493-.635 11.63.089 23.788-.163 35.61.146 8.767-.087 17.903 1.028 26.543 1.063 1.953 7.266.724 9.384.863 5.716-.21 11.416-.092 17.127-.23 1.175.207 3.351-.868 3.732.732a.963.963 0 0 1-.869 1.03c-9.073.28-18.148.37-27.216.502"></path>  <path d="M43.884 59.334c-1.537-16.61.255-33.51-1.824-50.026-6.237-.655-12.574-.521-18.842-.327-5.239.236-10.74-.924-15.797.692C5.955 12.514 3 7.286 10.146 7.153c5.913-.582 11.843.223 17.769-.21 2.681.234 15.33-.77 15.897 1.62 1.409 4.922.571 10.213 1.028 15.274.37 8.08.272 16.167.303 24.25.068 3.702.404 7.392.639 11.085.106 1.206-1.804 1.409-1.898.162"></path>  <path d="M16.014 15.92a.961.961 0 0 1-.901-1.002c.129-1.46 5.577-1.874 6.91-1.998 1.511.166 9.902-.292 9.609 1.554-.026.495-.484.958-1 .902-4.903-.645-9.849-.91-14.618.543m2.722 2.133c.068-1.66 2.327-.882 3.416-1.072 1.86.159 3.94-.414 5.695.137.632.504.279 1.641-.54 1.673-1.483-.222-8.775.933-8.57-.738m4.166 20.299c-1.536-.099-5.98-3.028-4.091-4.61 1.493-.532 1.993 2.225 3.566 2.474 2.434 1.37 7.476-1.368 4.623-4.05-1.717-1.13-3.972-1.189-5.606-2.488-2.216-1.374-1.492-4.685.812-5.52 1.487-.434 3.519-1.087 4.934-.376.704.813-.231 1.862-1.169 1.64-1.518-.17-5.628.827-3.385 2.773 1.936 1.35 4.761 1.214 6.291 3.184 3.015 3.8-2.139 7.971-5.975 6.973"></path>  <path d="M23.3 39.415c.254-1.886-2.189-19.746 1.401-17.214a.953.953 0 0 1 .18 1.232c-.405 3.456-.058 6.966.056 10.433-.236 1.373 1.096 6.323-.607 6.418-.508.043-.993-.35-1.03-.87m-6.175 21.319c-9.002-1.473-5.02-10.849 2.335-10.82 3.41-.191 18.648-1.506 18.252 3.496-.503.965-1.744.483-1.948-.445-.457-.345-1.03-.48-1.569-.645-3.106-.75-6.38-.819-9.549-.777-3.948.181-10.933-.359-10.763 5.185 2.204 3.555 9.525 2.587 13.243 2.513 1.245-.044 2.491-.022 3.734-.103 1.053.095 2.986-.833 3.279.683.061 1.81-4.46 1.038-5.746 1.292-3.76.08-7.579.645-11.268-.379"></path>  <path d="M19.712 56.448c-1.445-2.486 3.118-1.74 4.459-1.947 1.326.226 5.751-.767 5.773 1.064-.331 1.746-3.674.486-5.016.823-1.385.051-2.78.04-4.158.184a.97.97 0 0 1-1.058-.124"></path></svg>